<?xml version="1.0" encoding="utf-8"?>
<!-- Generator: Adobe Illustrator 27.5.0, SVG Export Plug-In . SVG Version: 6.00 Build 0)  -->
<svg version="1.1" xmlns="http://www.w3.org/2000/svg" xmlns:xlink="http://www.w3.org/1999/xlink" x="0px" y="0px"
	 viewBox="0 0 500 500" style="enable-background:new 0 0 500 500;" xml:space="preserve">
<g id="BACKGROUND">
	<rect id="XMLID_1_" style="fill:#FFFFFF;" width="500" height="500"/>
</g>
<g id="OBJECT">
	<path id="XMLID_56_" style="fill:#CFCBE6;" d="M390.774,461.186H102.226C54.605,461.186,16,422.581,16,374.96v0h461v0
		C477,422.581,438.395,461.186,390.774,461.186z"/>
	<g id="XMLID_291_">
		<g id="XMLID_274_">
			<g id="XMLID_249_">
				<polygon id="XMLID_23_" style="fill:#5672B7;" points="427.368,357.76 61.775,357.76 26.844,326.211 427.368,326.211 				"/>
				<polygon id="XMLID_54_" style="fill:#4D5584;" points="36.064,334.538 36.064,384.941 61.775,409.673 61.775,353.468 				"/>
				<rect id="XMLID_48_" x="61.775" y="353.468" style="fill:#3A3F68;" width="357.914" height="56.205"/>
				<g id="XMLID_131_">
					<rect id="XMLID_78_" x="75.401" y="367.686" style="fill:#4D5584;" width="75.491" height="21.5"/>
					<rect id="XMLID_83_" x="165.736" y="367.686" style="fill:#4D5584;" width="75.491" height="21.5"/>
					<rect id="XMLID_125_" x="254.787" y="367.686" style="fill:#4D5584;" width="75.491" height="21.5"/>
					<circle id="XMLID_82_" style="fill:#646E9B;" cx="114.125" cy="378.311" r="4.125"/>
					<circle id="XMLID_134_" style="fill:#646E9B;" cx="206.351" cy="378.311" r="4.125"/>
					<circle id="XMLID_138_" style="fill:#646E9B;" cx="295.059" cy="378.311" r="4.125"/>
				</g>
				<rect id="XMLID_27_" x="61.775" y="349.177" style="fill:#4563A0;" width="365.592" height="8.583"/>
				<polygon id="XMLID_52_" style="fill:#7D9FE0;" points="61.775,349.177 26.844,326.211 26.844,334.175 61.775,357.76 				"/>
			</g>
			<g id="XMLID_250_">
				<rect id="XMLID_20_" x="54.901" y="161.523" style="fill:#3D4166;" width="237.658" height="138.148"/>
				<rect id="XMLID_22_" x="150.891" y="298.554" style="fill:#2E3154;" width="45.677" height="27.132"/>
				<path id="XMLID_24_" style="fill:#3D4166;" d="M209.705,328.776h-74.698v-1.417c0-5.335,4.325-9.659,9.659-9.659h55.379
					c5.335,0,9.659,4.324,9.659,9.659V328.776z"/>
				<rect id="XMLID_25_" x="54.901" y="170.469" style="fill:#DBE5FE;" width="237.631" height="119.574"/>
				<g id="XMLID_64_">
					<path id="XMLID_59_" style="fill:#E99472;" d="M170.548,212.874l-1.494,15.526c0,0,4.096,3.653,8.829,3.996
						c4.733,0.342,8.871-3.767,8.871-3.767l-1.494-14.27L170.548,212.874z"/>
					<path id="XMLID_61_" style="fill:#E6A587;" d="M197.436,200.57c-0.042-7.12-4.423-5.361-5.236-4.972v-6.549h-28.487v6.517
						c-0.962-0.439-5.126-1.938-5.167,5.005c-0.023,3.909,3.794,5.758,5.167,6.297v1.527c0,8.013,9.007,14.508,14.244,14.508l0,0
						c5.097,0,14.244-6.496,14.244-14.508v-1.5C193.502,206.394,197.459,204.553,197.436,200.57z"/>
					<path id="XMLID_58_" style="fill:#080F35;" d="M163.712,195.565c0,0,0.908,0.809,1.047,3.44c0,0,1.905-0.822,2.165-1.423
						c0.846-1.954-0.978-5.903,0.349-8.534c0,0,5.795,1.493,12.498,1.493c6.703,0,9.356-0.782,9.356-0.782s-0.521,4.431,0,7.61
						c0.088,0.535,1.396,1.636,1.396,1.636s0.629-2.406,1.676-3.408c0,0,1.37-0.619,2.553-0.419c0,0,2.265-7.375-0.388-9.579
						c0,0,0.035-4.943-7.872-6.383c-7.907-1.44-20.632,1.973-25.031,0.427c0,0-0.157,2.507,0.89,3.307c0,0-2.636,0.587-3.805,0.267
						c0,0,0.297,2.88,2.234,3.947c0,0-1.594,3.161-0.247,8.248C160.533,195.412,162.141,194.525,163.712,195.565z"/>
					<path id="XMLID_90_" style="fill:#435897;" d="M208.834,290.004h-0.054h-62.162l-2.106-14.997l-0.009-0.111
						c-2.033-18.224-4.203-39.047-3.622-39.408c1.044-0.638,28.176-10.67,28.176-10.67l8.46,4.854l8.469-4.854
						c0,0,24.863,9.2,27.904,10.541c0.136,0.055,0.227,0.102,0.272,0.129C214.925,235.95,211.003,271.049,208.834,290.004z"/>
					<polygon id="XMLID_60_" style="fill:#2E3154;" points="169.607,222.644 177.52,229.673 172.719,234.494 166.152,225.896 					
						"/>
					<polygon id="XMLID_62_" style="fill:#2E3154;" points="186.183,222.644 177.52,229.673 182.773,235.116 189.581,225.889 					
						"/>
					<path id="XMLID_86_" style="fill:#2E3154;" d="M127.464,290.004c-0.399-19.473,5.891-51.03,13.416-54.516l3.622,39.408
						l0.009,0.111l0.018,0.102l2.088,14.896H127.464z"/>
					<path id="XMLID_84_" style="fill:#2E3154;" d="M225.845,290.004h-17.011c-0.109,0.943,1.443-15.376,1.443-15.376l3.613-39.269
						l0.018-0.24C221.242,238.512,226.435,269.81,225.845,290.004z"/>
					<path id="XMLID_77_" style="fill:#F9DD3A;" d="M208.834,290.004"/>
				</g>
				<circle id="XMLID_57_" style="fill:#FFC0D6;" cx="176.122" cy="274.05" r="11.347"/>
				
					<ellipse id="XMLID_65_" transform="matrix(0.2307 -0.973 0.973 0.2307 -156.6967 353.0327)" style="fill:#C9FFA5;" cx="144.917" cy="275.615" rx="9.783" ry="9.783"/>
				
					<ellipse id="XMLID_66_" transform="matrix(0.2307 -0.973 0.973 0.2307 -109.4368 412.8091)" style="fill:#C9FFA5;" cx="206.351" cy="275.615" rx="9.783" ry="9.783"/>
				<path id="XMLID_63_" style="fill:#FA7070;" d="M278.415,183.853c0,3.406-2.761,6.167-6.167,6.167s-6.167-2.761-6.167-6.167
					c0-3.406,2.761-6.167,6.167-6.167S278.415,180.447,278.415,183.853z"/>
				<polygon id="XMLID_72_" style="fill:#A5C1E6;" points="283.75,253.077 254.206,253.077 254.206,263.524 273.154,263.524 
					278.896,269.593 278.896,263.524 283.75,263.524 				"/>
				<polygon id="XMLID_69_" style="fill:#F3A9B8;" points="241.227,237.25 270.772,237.25 270.772,247.697 251.824,247.697 
					246.081,253.766 246.081,247.697 241.227,247.697 				"/>
				<polygon id="XMLID_73_" style="fill:#A5C1E6;" points="285.227,220.734 255.683,220.734 255.683,231.181 274.631,231.181 
					280.374,237.25 280.374,231.181 285.227,231.181 				"/>
				<polygon id="XMLID_71_" style="fill:#F3A9B8;" points="242.704,204.906 272.249,204.906 272.249,215.353 253.301,215.353 
					247.558,221.423 247.558,215.353 242.704,215.353 				"/>
				<rect id="XMLID_110_" x="66.183" y="184.064" style="fill:#FFFFFF;" width="28.965" height="30.023"/>
				<path id="XMLID_109_" style="fill:#686D8E;" d="M85.331,194.336c0,2.742-2.223,4.965-4.965,4.965
					c-2.742,0-4.965-2.223-4.965-4.965c0-2.742,2.223-4.965,4.965-4.965C83.108,189.371,85.331,191.594,85.331,194.336z"/>
				<path id="XMLID_108_" style="fill:#686D8E;" d="M90.527,214.086h-19.63v-3.122c0-5.421,4.394-9.815,9.815-9.815h0
					c5.421,0,9.815,4.394,9.815,9.815V214.086z"/>
				<rect id="XMLID_113_" x="66.183" y="220.448" style="fill:#FFFFFF;" width="28.965" height="30.023"/>
				<path id="XMLID_112_" style="fill:#686D8E;" d="M85.331,230.72c0,2.742-2.223,4.965-4.965,4.965
					c-2.742,0-4.965-2.223-4.965-4.965c0-2.742,2.223-4.965,4.965-4.965C83.108,225.755,85.331,227.978,85.331,230.72z"/>
				<path id="XMLID_111_" style="fill:#686D8E;" d="M90.527,250.471h-19.63v-3.122c0-5.421,4.394-9.815,9.815-9.815h0
					c5.421,0,9.815,4.394,9.815,9.815V250.471z"/>
				<rect id="XMLID_116_" x="66.183" y="255.375" style="fill:#FFFFFF;" width="28.965" height="30.023"/>
				<path id="XMLID_115_" style="fill:#686D8E;" d="M85.331,265.648c0,2.742-2.223,4.965-4.965,4.965
					c-2.742,0-4.965-2.223-4.965-4.965c0-2.742,2.223-4.965,4.965-4.965C83.108,260.682,85.331,262.905,85.331,265.648z"/>
				<path id="XMLID_114_" style="fill:#686D8E;" d="M90.527,285.398h-19.63v-3.122c0-5.421,4.394-9.815,9.815-9.815h0
					c5.421,0,9.815,4.394,9.815,9.815V285.398z"/>
			</g>
		</g>
		<g id="XMLID_248_">
			<polygon id="XMLID_26_" style="fill:#3D4166;" points="225.395,319.961 232.818,339.26 307.965,338.529 299.781,319.961 			"/>
			<polygon id="XMLID_28_" style="fill:#2E3154;" points="225.395,319.961 219.209,336.341 231.695,336.341 			"/>
			<g id="XMLID_29_">
				<g id="XMLID_183_">
					<rect id="XMLID_184_" x="230.034" y="323.469" style="fill:#5D81C0;" width="67.582" height="1"/>
				</g>
			</g>
			<g id="XMLID_30_">
				<g id="XMLID_180_">
					<rect id="XMLID_181_" x="231.695" y="326.716" style="fill:#5D81C0;" width="67.582" height="1"/>
				</g>
			</g>
			<g id="XMLID_31_">
				<g id="XMLID_172_">
					<rect id="XMLID_173_" x="233.356" y="329.964" style="fill:#5D81C0;" width="67.582" height="1"/>
				</g>
			</g>
			<g id="XMLID_32_">
				<g id="XMLID_168_">
					<rect id="XMLID_170_" x="235.017" y="333.211" style="fill:#5D81C0;" width="67.581" height="1"/>
				</g>
			</g>
		</g>
		<g id="XMLID_37_">
			<polygon id="XMLID_38_" style="fill:#F3A9B8;" points="84.161,328.797 99.587,340.279 124.988,340.279 108.402,328.797 			"/>
			<polygon id="XMLID_39_" style="fill:#FA7070;" points="84.161,335.06 99.491,347.586 99.587,340.279 84.161,328.797 			"/>
			<polygon id="XMLID_40_" style="fill:#DBE5FE;" points="99.587,340.279 124.988,340.279 124.988,347.354 99.491,347.586 			"/>
		</g>
	</g>
	<g id="XMLID_85_">
		<g id="XMLID_242_">
			<ellipse id="XMLID_4_" style="fill:#ADAACE;" cx="347.571" cy="432.379" rx="66.571" ry="14.307"/>
			<g id="XMLID_16_">
				<g id="XMLID_165_">
					<path id="XMLID_166_" style="fill:#5672B7;" d="M365.544,429.849c-0.193,0-0.391-0.028-0.585-0.088
						c-1.057-0.322-1.651-1.44-1.329-2.497l15.303-50.145c0.648-2.123,2.501-3.531,4.72-3.588c2.195-0.051,4.141,1.254,4.898,3.341
						l17.62,48.633c0.376,1.039-0.161,2.186-1.199,2.563c-1.04,0.374-2.186-0.16-2.563-1.199l-17.62-48.633
						c-0.235-0.653-0.775-0.714-1.033-0.706c-0.232,0.007-0.793,0.092-0.996,0.758l-15.303,50.145
						C367.192,429.293,366.4,429.849,365.544,429.849z"/>
				</g>
			</g>
			<g id="XMLID_21_">
				<g id="XMLID_162_">
					<path id="XMLID_163_" style="fill:#5672B7;" d="M319.564,429.279c-0.193,0-0.391-0.028-0.585-0.088
						c-1.057-0.322-1.651-1.44-1.329-2.497l15.302-50.145c0.648-2.123,2.501-3.531,4.72-3.588c2.2-0.044,4.141,1.255,4.897,3.341
						l17.621,48.633c0.376,1.039-0.161,2.186-1.199,2.563c-1.039,0.375-2.185-0.16-2.563-1.199l-17.621-48.633
						c-0.235-0.652-0.781-0.709-1.033-0.706c-0.231,0.007-0.793,0.092-0.996,0.758l-15.302,50.145
						C321.213,428.723,320.421,429.279,319.564,429.279z"/>
				</g>
			</g>
			<path id="XMLID_19_" style="fill:#FFDACE;" d="M336.202,377.047h51.918c0,0,17.675-20.89,20.458-51.505
				c2.784-30.614-13.918-34.948-21.574-33.63c-7.656,1.318-52.561,81.191-52.561,81.191L336.202,377.047z"/>
			<path id="XMLID_14_" style="fill:#E99472;" d="M346.544,372.176h-10.343c0,0,3.17,7.878,4.562,22.26
				c1.392,14.383,1.701,40.76,1.701,40.76h-7.53c0,0-7.007-32.013-9.481-48.56c-2.474-16.548-4.098-19.022-2.436-24.899
				c1.663-5.877,12.488-8.061,12.488-8.061S346.544,363.129,346.544,372.176z"/>
			<path id="XMLID_18_" style="fill:#4D5584;" d="M333.534,434.647c0,0-1.01,3.838-2.424,6.059
				c-1.414,2.222-7.272,6.968-6.716,8.786c0.556,1.818,4.797,1.818,8.534,0.505c3.737-1.313,6.463-3.413,8.483-7.211
				s1.212,1.555,2.929,1.151c1.717-0.404,1.989-5.483-2.237-14.153l-8.029,2.028L333.534,434.647z"/>
			<path id="XMLID_8_" style="fill:#E6A587;" d="M338.519,307.098c-3.637-2.522-16.623-9.231-16.623-9.231l-0.15,0.208l-4.598-3.617
				l-0.483-1.449c0,0-0.579-2.125-2.028-3.284c-1.449-1.159-2.994-3.187-3.96-5.505c-0.966-2.318-1.738,2.125-0.579,3.477
				c1.159,1.352,1.449,2.897,1.449,2.897s-3.477-1.721-6.761-2.309c-3.284-0.588-3.091,0.667-2.801,0.86
				c0.29,0.193,4.25,1.835,4.25,1.835l-0.483,0.483c0,0-4.056-1.352-5.795-1.352c-1.738,0,0,1.642,0,1.642s-0.579,1.062,0.773,1.932
				c1.352,0.869,1.835,1.256,1.835,1.256s0.966,2.286,2.125,2.833c1.159,0.547,7.63,2.093,7.63,2.093l5.629,3.468l-0.073,0.1
				c9.279,9.434,23.043,15.388,23.043,15.388C341.382,315.806,342.156,309.62,338.519,307.098z"/>
			<path id="XMLID_11_" style="fill:#E05C5C;" d="M339.063,304.252c0,0,8.197-27.882,17.553-30.202l-4.562,27.218l-11.135,16.548
				C340.918,317.816,337.053,310.301,339.063,304.252z"/>
			<path id="XMLID_15_" style="fill:#E6A587;" d="M320.427,344.571c0,0-1.856,4.176-3.712,21.11
				c-1.856,16.934-5.335,41.755-6.147,50.339h7.307c0,0,9.884-19.97,11.251-35.492c1.624-18.442,7.075-23.661,7.075-23.661
				S327.915,340.859,320.427,344.571z"/>
			<path id="XMLID_13_" style="fill:#2E3154;" d="M382.481,335.176c0,0,6.611,8.699,7.075,18.21
				c0.464,9.511-3.943,15.542-10.207,16.702c-6.263,1.16-32.804,2.088-32.804,2.088s-4.543-11.599-10.343-15.31
				c-5.799-3.712-7.655-12.295-15.774-12.295c0,0-0.54,0.234,2.088-2.552c3.866-4.098,25.034-1.71,25.034-1.71v-5.133H382.481"/>
			<path id="XMLID_6_" style="fill:#FA7070;" d="M356.615,274.05c0,0,14.962-1.624,23.777,0c8.815,1.624,4.176,24.937,1.276,34.68
				c-2.9,9.743,0.812,26.445,0.812,26.445H353.6c0,0-2.552-25.633-3.828-29.693c-1.276-4.06-3.944-7.423-2.436-15.542
				C348.844,281.822,356.615,274.05,356.615,274.05z"/>
			<path id="XMLID_5_" style="fill:#E99472;" d="M360.095,267.787c0,0,1.005,2.165,0.464,4.717s-0.995,3.248,0.16,5.181
				s6.566-1.966,7.804-3.96s0.851-9.417,0.851-9.417L360.095,267.787z"/>
			<path id="XMLID_7_" style="fill:#E6A587;" d="M353.252,250.505c0,0,0.348,7.848,0.425,11.096
				c0.077,3.248,4.871,7.114,7.036,7.269c2.165,0.155,8.042-3.248,9.356-5.49c1.315-2.242,0.387-16.934,0.387-16.934
				S355.069,241.651,353.252,250.505z"/>
			<path id="XMLID_10_" style="fill:#583B1C;" d="M365.121,245.982c0,0-5.645,5.722-11.869,4.523l0.522,11.826
				c0,0,1.682,4.693,6.553,6.544c0,0-0.077,2.392-2.784,3.243c-2.706,0.851-4.292,0-4.292,0s-0.271,1.933-3.132,2.01
				c-2.861,0.077-6.727-3.866-2.784-7.346c0,0-1.933-2.242-0.773-5.567c1.16-3.325,2.088-0.696,3.48-4.949
				c1.392-4.253-0.077-3.016-1.547-6.65c-1.469-3.634,0.851-6.959,5.799-10.439c4.949-3.48,12.372-1.469,14.537,0
				c0,0,5.297,0.271,7.153,4.601s0.78,5.45,3.673,7.926c3.75,3.209,3.325,6.031,3.325,6.031s3.248,4.253,1.005,8.97
				c-2.242,4.717-4.871,4.098-4.871,4.098s-2.397,4.562-6.959,4.562s-6.241-5.702-4.485-8.428c1.756-2.727,1.547-6.031,1.547-6.031
				s-0.951-2.013-0.232-5.335c0.619-2.861-0.541-2.977-0.541-2.977S365.43,250.621,365.121,245.982z"/>
			<path id="XMLID_17_" style="fill:#FA7070;" d="M381.592,274.442c0,0-3.866,6.452-3.171,14.339
				c0.696,7.887,11.251,30.041,11.251,30.041h8.235c0,0-7.281-32.824-9.788-38.508C385.612,274.63,381.592,274.442,381.592,274.442z
				"/>
			<path id="XMLID_33_" style="fill:#87ABFF;" d="M327.696,311.785c0,0,9.975-2.01,24.125-1.082l7.423,29.229l-21.535,0.696
				L327.696,311.785z"/>
			<path id="XMLID_146_" style="fill:#E6A587;" d="M397.907,318.822c0,0-4.292-2.204-8.467-2.32
				c-4.176-0.116-23.241,6.031-23.241,6.031l-5.485,1.392c0,0-6.159-2.769-7.423-3.016c-1.264-0.247-6.495,3.866-6.727,5.335
				c-0.232,1.469,1.778,1.933,1.778,1.933s0.077,2.242,1.237,2.474c0,0,0.232,1.701,1.547,1.778c0,0,0.464,1.083,1.778,1.083
				c1.315,0,2.697-1.083,2.697-1.083s4.262-0.464,5.963-2.474l6.882-1.276c0,0,19.138,0,25.053-3.016
				C399.415,322.649,397.907,318.822,397.907,318.822z"/>
		</g>
		<path id="XMLID_3_" style="fill:#4D5584;" d="M309.538,414.897c0,0-1.791,1.929-4.478,3.995
			c-2.686,2.067-11.435,3.513-12.33,4.477c-0.896,0.964,1.791,4.064,6.613,4.133c4.822,0.069,10.953-1.791,12.261-2.204
			s0.896,2.618,2.135,2.549c1.24-0.069,5.098-6.062,4.546-12.95l-7.599-2.193L309.538,414.897z"/>
	</g>
	<g id="XMLID_247_">
		<path id="XMLID_34_" style="fill:#C9FFA5;" d="M432.056,274.446c0,0-0.032,6.752-3.32,11.13
			c-3.287,4.378-5.547,9.926-1.438,15.473c4.109,5.547-2.999,10.147-2.219,15.86c0.78,5.713,8.241,8.178,6.976,12.903
			c-1.265,4.725-6.812,7.328-4.347,13.012c2.465,5.684,2.26,12.669,2.26,12.669h6.163c0,0,8.629-13.765,8.834-21.161
			c0.205-7.396-3.096-10.427,0-15.203c3.096-4.776,2.484-8.834,0.009-14.382c-2.475-5.547,7.943-7.853,4.994-15.226
			c-2.949-7.373-7.469-8.19-7.263-15.075c0.206-6.885-3.287-9.882-6.574-8.734C433.417,266.66,432.755,269.272,432.056,274.446z"/>
		<path id="XMLID_36_" style="fill:#FA7070;" d="M448.456,354.398h-11.707h-9.386h-11.707c0,0-6.574,34.79,7.67,64.101h4.036h9.386
			h4.036C455.03,389.188,448.456,354.398,448.456,354.398z"/>
		<path id="XMLID_35_" style="fill:#ABDD83;" d="M434.9,354.398c0,0,4.46-27.188,15.07-43.145
			c10.611-15.957,18.007-19.687,20.678-17.411c2.671,2.276-4.315,2.687,0,15.699c3.805,11.474-10.273,3.835-10.889,9.382
			c-0.616,5.547,4.315,6.966-0.616,12.729c-4.931,5.762-8.278,4.94-9.173,8.638c-0.894,3.698,1.777,5.958-1.305,8.834
			c-3.082,2.876-6.163,5.273-6.163,5.273H434.9z"/>
		<path id="XMLID_41_" style="fill:#ABDD83;" d="M406.479,293.233c0,0,3.013,2.817,1.78,7.474s-1.644,8.321,2.602,9.776
			c4.246,1.455-1.233,11.591,0.548,15.7c1.781,4.109,6.437,4.892,6.985,7.533c0.548,2.641-2.739,4.383-0.959,9.108
			c1.781,4.725,5.753,6.506,6.301,8.423c0.548,1.918,0,3.15,0,3.15h7.396c0,0-2.191-40.953-10.273-55.198
			c-8.081-14.245-11.368-17.395-14.382-17.669c-3.013-0.274,0.274,4.794,0,6.848C406.205,290.434,405.045,291.049,406.479,293.233z"
			/>
	</g>
	<g id="XMLID_87_">
		<g id="XMLID_239_">
			<rect id="XMLID_43_" x="313.837" y="92.941" style="fill:#F3A9B8;" width="92.323" height="130.911"/>
			
				<ellipse id="XMLID_44_" transform="matrix(0.2278 -0.9737 0.9737 0.2278 188.3684 488.6441)" style="fill:#C9FFA5;" cx="402.259" cy="125.562" rx="20.121" ry="20.121"/>
			<rect id="XMLID_45_" x="321.896" y="105.441" style="fill:#FFFFFF;" width="31.355" height="32.5"/>
			<rect id="XMLID_46_" x="321.896" y="152.607" style="fill:#FA7070;" width="73.99" height="3.333"/>
			<rect id="XMLID_47_" x="321.896" y="159.856" style="fill:#FA7070;" width="73.99" height="3.333"/>
			<rect id="XMLID_49_" x="321.896" y="168.803" style="fill:#FA7070;" width="73.99" height="3.333"/>
			<rect id="XMLID_94_" x="321.896" y="176.604" style="fill:#FA7070;" width="73.99" height="3.333"/>
			<rect id="XMLID_93_" x="321.896" y="183.853" style="fill:#FA7070;" width="73.99" height="3.333"/>
			<rect id="XMLID_92_" x="321.896" y="192.8" style="fill:#FA7070;" width="73.99" height="3.333"/>
			<rect id="XMLID_95_" x="321.896" y="204.432" style="fill:#FA7070;" width="73.99" height="7.486"/>
			<g id="XMLID_88_">
				
					<text transform="matrix(1 0 0 1 384.8138 130.9383)" style="fill:#5D81C0; font-family:'Poppins-ExtraBoldItalic'; font-size:17.7901px;"> CV </text>
			</g>
			<circle id="XMLID_79_" style="fill:#A5C1E6;" cx="337.25" cy="116.561" r="5.375"/>
			<path id="XMLID_89_" style="fill:#A5C1E6;" d="M348.25,137.941H327v-3.38c0-5.868,4.757-10.625,10.625-10.625l0,0
				c5.868,0,10.625,4.757,10.625,10.625V137.941z"/>
		</g>
		<g id="XMLID_145_">
			<rect id="XMLID_53_" x="57.642" y="83.562" style="fill:#87ABFF;" width="145.608" height="62.121"/>
			<rect id="XMLID_97_" x="61.25" y="101.936" style="fill:#DBE5FE;" width="136.75" height="38.005"/>
			<g id="XMLID_96_">
				
					<text transform="matrix(1 0 0 1 63.5833 97.8551)" style="fill:#4563A0; font-family:'Poppins-ExtraBoldItalic'; font-size:12px;">RESUME</text>
			</g>
			<rect id="XMLID_91_" x="64.988" y="107.317" style="fill:#A5C1E6;" width="48.455" height="2.625"/>
			<rect id="XMLID_98_" x="64.988" y="115.873" style="fill:#A5C1E6;" width="48.455" height="2.625"/>
			<rect id="XMLID_99_" x="115.147" y="115.873" style="fill:#A5C1E6;" width="18.099" height="2.625"/>
			<rect id="XMLID_100_" x="135.924" y="115.873" style="fill:#A5C1E6;" width="38.228" height="2.625"/>
			<rect id="XMLID_101_" x="175.532" y="115.873" style="fill:#A5C1E6;" width="20.372" height="2.625"/>
			<rect id="XMLID_105_" x="84.791" y="123.507" style="fill:#A5C1E6;" width="48.455" height="2.625"/>
			<rect id="XMLID_104_" x="64.988" y="123.507" style="fill:#A5C1E6;" width="18.1" height="2.625"/>
			<rect id="XMLID_103_" x="135.924" y="123.507" style="fill:#A5C1E6;" width="38.228" height="2.625"/>
			<rect id="XMLID_106_" x="169.266" y="133.436" style="fill:#A5C1E6;" width="25.234" height="3.25"/>
			<rect id="XMLID_102_" x="175.532" y="123.507" style="fill:#A5C1E6;" width="20.372" height="2.625"/>
			<path id="XMLID_107_" style="fill:#C9FFA5;" d="M208,85.333c0,3.579-3.022,6.48-6.75,6.48c-3.728,0-6.75-2.901-6.75-6.48
				s3.022-6.48,6.75-6.48C204.978,78.853,208,81.754,208,85.333z"/>
		</g>
		<g id="XMLID_233_">
			<rect id="XMLID_50_" x="222.5" y="59.675" style="fill:#F3A9B8;" width="76.379" height="80.266"/>
			<rect id="XMLID_75_" x="227.207" y="79.736" style="fill:#FFFFFF;" width="66.247" height="53.053"/>
			<g id="XMLID_68_">
				
					<text transform="matrix(1 0 0 1 228.5815 74.788)" style="fill:#FA7070; font-family:'Poppins-ExtraBoldItalic'; font-size:13.1944px;">SKILL</text>
			</g>
			<g id="XMLID_74_">
				
					<text transform="matrix(1 0 0 1 265.4815 129.436)" style="fill:#FA7070; font-family:'Poppins-ExtraBoldItalic'; font-size:9.9507px;">100%</text>
			</g>
			<g id="XMLID_148_">
				<g id="XMLID_175_">
					<path id="XMLID_179_" style="fill:#A5C1E6;" d="M236.239,85.783c-0.398-1.118-1.455-1.924-2.71-1.924
						c-1.594,0-2.886,1.292-2.886,2.886c0,1.594,1.292,2.886,2.886,2.886c1.035,0,1.936-0.55,2.446-1.369h53.905v-2.479H236.239z"/>
					<path id="XMLID_178_" style="fill:#A5C1E6;" d="M233.529,93.666c-1.594,0-2.886,1.292-2.886,2.886
						c0,1.594,1.292,2.886,2.886,2.886c1.148,0,2.132-0.676,2.596-1.647h53.755v-2.479h-53.755
						C235.661,94.342,234.677,93.666,233.529,93.666z"/>
					<path id="XMLID_177_" style="fill:#A5C1E6;" d="M233.529,103.473c-1.594,0-2.886,1.292-2.886,2.886
						c0,1.594,1.292,2.886,2.886,2.886c1.255,0,2.312-0.806,2.71-1.924h53.642v-2.479h-53.905
						C235.465,104.023,234.564,103.473,233.529,103.473z"/>
					<path id="XMLID_176_" style="fill:#A5C1E6;" d="M233.529,113.28c-1.594,0-2.886,1.292-2.886,2.886s1.292,2.886,2.886,2.886
						c1.357,0,2.487-0.94,2.796-2.202h53.555v-2.479h-54.107C235.244,113.711,234.441,113.28,233.529,113.28z"/>
				</g>
			</g>
			<ellipse id="XMLID_118_" style="fill:#7DB5F3;" cx="294.828" cy="63.884" rx="7.422" ry="7.125"/>
		</g>
	</g>
	<g id="XMLID_241_">
		<path id="XMLID_42_" style="fill:#B6DCFF;" d="M442.076,244.656l5.583-0.804l-0.12-5.062l-5.739-0.524
			c-0.2-0.534-0.44-1.046-0.722-1.533l3.147-4.581l-3.803-3.343l-4.059,3.667c-0.292-0.131-0.592-0.247-0.897-0.351l-0.692-5.771
			h-5.064l-0.657,5.693c-0.366,0.115-0.721,0.255-1.069,0.409l-4.294-3.879l-3.803,3.343l3.324,4.839
			c-0.23,0.401-0.437,0.817-0.612,1.249l-6.026,0.55l-0.12,5.062l5.72,0.824c0.168,0.655,0.397,1.284,0.683,1.882l-3.474,5.057
			l3.803,3.343l4.134-3.735c0.551,0.293,1.129,0.539,1.733,0.729l0.657,5.695h5.064l0.692-5.773c0.422-0.143,0.83-0.315,1.225-0.509
			l4.236,3.827l3.803-3.343l-3.427-4.989C441.626,246.004,441.884,245.345,442.076,244.656z M432.152,237.042
			c2.545,0,4.607,2.063,4.607,4.607c0,2.545-2.063,4.607-4.607,4.607c-2.545,0-4.607-2.063-4.607-4.607
			C427.545,239.105,429.607,237.042,432.152,237.042z"/>
		<path id="XMLID_139_" style="fill:#B6DCFF;" d="M352.645,67.062l5.583-0.804l-0.12-5.062l-5.739-0.524
			c-0.2-0.534-0.44-1.046-0.722-1.534l3.147-4.581l-3.803-3.343l-4.059,3.667c-0.292-0.131-0.591-0.247-0.897-0.351l-0.692-5.771
			h-5.064l-0.657,5.692c-0.366,0.115-0.721,0.255-1.069,0.409l-4.294-3.879l-3.803,3.343l3.324,4.839
			c-0.23,0.401-0.437,0.817-0.612,1.25l-6.026,0.55l-0.121,5.062l5.72,0.824c0.168,0.655,0.397,1.284,0.683,1.882l-3.474,5.057
			l3.803,3.343l4.134-3.735c0.551,0.293,1.129,0.539,1.733,0.729l0.657,5.695h5.064l0.692-5.773c0.422-0.143,0.83-0.315,1.225-0.509
			l4.236,3.827l3.803-3.343l-3.427-4.989C352.195,68.41,352.453,67.751,352.645,67.062z M342.721,59.448
			c2.545,0,4.607,2.063,4.607,4.608c0,2.545-2.063,4.607-4.607,4.607c-2.545,0-4.607-2.063-4.607-4.607
			C338.114,61.511,340.176,59.448,342.721,59.448z"/>
		<path id="XMLID_142_" style="fill:#B6DCFF;" d="M170.58,57.118l5.583-0.804l-0.12-5.062l-5.739-0.524
			c-0.2-0.534-0.44-1.046-0.722-1.533l3.147-4.581l-3.803-3.343l-4.059,3.667c-0.292-0.131-0.592-0.247-0.897-0.351l-0.692-5.771
			h-5.064l-0.657,5.693c-0.366,0.115-0.721,0.255-1.069,0.409l-4.294-3.879l-3.803,3.343l3.324,4.839
			c-0.23,0.401-0.437,0.817-0.612,1.25l-6.026,0.55l-0.12,5.062l5.72,0.824c0.168,0.655,0.397,1.284,0.683,1.882l-3.474,5.057
			l3.803,3.343l4.134-3.735c0.55,0.293,1.129,0.539,1.733,0.729l0.657,5.695h5.064l0.692-5.773c0.422-0.143,0.83-0.315,1.225-0.509
			l4.236,3.827l3.803-3.343l-3.427-4.989C170.13,58.466,170.388,57.806,170.58,57.118z M160.656,49.504
			c2.545,0,4.607,2.063,4.607,4.607c0,2.545-2.063,4.607-4.607,4.607s-4.607-2.063-4.607-4.607
			C156.048,51.567,158.111,49.504,160.656,49.504z"/>
		<circle id="XMLID_76_" style="fill:#DBE5FE;" cx="436.759" cy="169.396" r="6.728"/>
		<circle id="XMLID_80_" style="fill:#DBE5FE;" cx="408.887" cy="71.01" r="6.728"/>
		<circle id="XMLID_81_" style="fill:#DBE5FE;" cx="313.837" cy="246.257" r="6.728"/>
		<path id="XMLID_119_" style="fill:#DBE5FE;" d="M108.705,64.056c0,2.545-2.063,4.607-4.607,4.607
			c-2.545,0-4.607-2.063-4.607-4.607c0-2.545,2.063-4.607,4.607-4.607C106.643,59.448,108.705,61.511,108.705,64.056z"/>
	</g>
</g>
</svg>
