<svg width="146" height="123" viewBox="0 0 146 123" fill="none" xmlns="http://www.w3.org/2000/svg">
<path fill-rule="evenodd" clip-rule="evenodd" d="M0 19.2104C21.8675 29.8829 32.8011 42.4229 32.8011 56.8308C23.4805 57.8981 15.7732 61.6778 9.67902 68.1703C3.58478 74.6627 0.53772 82.1778 0.53772 90.7158C0.53772 99.7875 3.49516 107.436 9.41016 113.662C15.3251 119.887 22.7636 123 31.7257 123C41.7632 123 50.4563 118.953 57.8052 110.86C65.1542 102.767 68.8286 92.9393 68.8286 81.3774C68.8286 46.6918 49.2915 19.5663 10.2167 0L0 19.2104ZM77.1714 19.2104C99.2182 29.8829 110.241 42.4229 110.241 56.8308C100.742 57.8981 92.9447 61.6778 86.8504 68.1703C80.7562 74.6627 77.7092 82.1778 77.7092 90.7158C77.7092 99.7875 80.7114 107.436 86.716 113.662C92.7206 119.887 100.204 123 109.166 123C119.204 123 127.852 118.953 135.111 110.86C142.37 102.767 146 92.9393 146 81.3774C146 46.6918 126.553 19.5663 87.657 0L77.1714 19.2104Z" fill="#6151BC"/>
</svg>
